<svg width="40" height="40" viewBox="0 0 40 40" fill="none" xmlns="http://www.w3.org/2000/svg">
    <path d="M35.7571 5.22165C35.5666 5.06266 35.3036 5.0226 35.0745 5.11766L4.41003 17.7834C4.15931 17.888 3.99711 18.1342 4.00004 18.4058C4.00297 18.6775 4.17044 18.9202 4.42337 19.0193L12.8654 22.2977C13.0728 22.3786 13.3069 22.3506 13.4894 22.2231L24.6885 14.2583C24.973 14.0527 25.3681 14.1028 25.5922 14.373C25.8163 14.6431 25.7925 15.0407 25.5378 15.2822L16.2052 24.2749C16.0748 24.4006 16.0012 24.5738 16.0012 24.7549V33.7316C16.0021 34.0319 16.2037 34.2946 16.4936 34.3731C16.7836 34.4516 17.0902 34.3265 17.2424 34.0675L21.4648 26.8347C21.5564 26.6788 21.7554 26.6238 21.9141 26.7107L29.6815 30.9771C29.8659 31.0787 30.0876 31.0873 30.2793 31.0001C30.4709 30.9129 30.6102 30.7403 30.6548 30.5345L35.9877 5.8696C36.0344 5.62775 35.9461 5.37962 35.7571 5.22165Z" fill="#006AB3"/>
</svg>
